<svg width="32" height="32" viewBox="0 0 32 32" fill="none" xmlns="http://www.w3.org/2000/svg">
<g clip-path="url(#clip0_1_58)">
<ellipse cx="16" cy="17.5" rx="16" ry="17.5" fill="#FFA7ED"/>
<path d="M10.5934 6.71186C14.5678 5.09605 17.6049 5.09605 21.5793 6.71186C30.7966 10.4593 24.6885 32 24.6885 32H7.48424C7.48424 32 1.37611 10.4593 10.5934 6.71186Z" fill="url(#paint0_linear_1_58)"/>
<path d="M20.3897 12.8127C20.7952 13.3776 20.7952 14.1224 20.3897 14.6873C19.5409 15.8695 17.8934 17.75 16 17.75C14.1066 17.75 12.4591 15.8695 11.6103 14.6873C11.2048 14.1224 11.2048 13.3776 11.6103 12.8127C12.4591 11.6305 14.1066 9.75 16 9.75C17.8934 9.75 19.5409 11.6305 20.3897 12.8127Z" fill="#FFEBF9"/>
<path d="M17.4923 12.6954C18.1602 13.2536 18.1714 14.2561 17.5042 14.8151C17.0678 15.1808 16.5339 15.5 16 15.5C15.4661 15.5 14.9322 15.1808 14.4958 14.8151C13.8286 14.2561 13.8398 13.2536 14.5077 12.6954C14.9507 12.3253 15.4862 12 16 12C16.5138 12 17.0493 12.3253 17.4923 12.6954Z" fill="#242938"/>
</g>
<defs>
<linearGradient id="paint0_linear_1_58" x1="15.9827" y1="32" x2="15.9827" y2="5.46818" gradientUnits="userSpaceOnUse">
<stop stop-color="#D118DB"/>
<stop offset="1" stop-color="#DF1E82"/>
</linearGradient>
<clipPath id="clip0_1_58">
<rect width="32" height="32" fill="white"/>
</clipPath>
</defs>
</svg>
